Coordinates
version=1
nRows=11
nColumns=40
inDegrees=yes

Units are S.I. units (second, meters, Newtons, ...)
Angles are in degrees.

endheader
time	pelvis_tilt	pelvis_list	pelvis_rotation	pelvis_tx	pelvis_ty	pelvis_tz	hip_flexion_r	hip_adduction_r	hip_rotation_r	knee_angle_r	knee_angle_r_beta	ankle_angle_r	subtalar_angle_r	mtp_angle_r	hip_flexion_l	hip_adduction_l	hip_rotation_l	knee_angle_l	knee_angle_l_beta	ankle_angle_l	subtalar_angle_l	mtp_angle_l	lumbar_extension	lumbar_bending	lumbar_rotation	arm_flex_r	arm_add_r	arm_rot_r	elbow_flex_r	pro_sup_r	wrist_flex_r	wrist_dev_r	arm_flex_l	arm_add_l	arm_rot_l	elbow_flex_l	pro_sup_l	wrist_flex_l	wrist_dev_l
      1.19000000	     -1.53749168	     -2.04549120	      1.36702614	     -0.02452406	      0.89182039	     -0.97278281	      2.92986585	      3.27412642	    -13.84045362	    -19.64820589	     -0.34292588	     12.44905195	      0.35388397	      0.11793558	     30.59603156	      6.75141543	      9.54267058	    -47.63154115	     -0.83132722	     10.03230005	     18.63306538	     20.36748946	     -4.27182221	      1.05819829	      0.03174763	      4.64758937	    -10.63605860	    -10.11645205	     33.29378081	     89.95437384	      0.00000000	      0.00000000	     -6.67311094	      7.72831877	     18.20749403	     30.80202164	     89.95437384	      0.00000000	      0.00000000
      1.20000000	     -1.62203127	     -1.73394855	      1.17980369	     -0.01639234	      0.89147688	     -0.97304026	      2.30658339	      2.90901085	    -13.68146264	    -19.38208841	     -0.33828126	     12.82620725	      0.70995724	     -0.14077680	     30.78102572	      6.27787533	      9.90460275	    -44.71882014	     -0.78049065	      9.53552477	     18.49392807	     20.26915929	     -4.27068111	      0.71820969	      0.47342709	      4.72941493	    -10.91882952	     -9.94504652	     34.06218266	     89.95437384	      0.00000000	      0.00000000	     -6.55670465	      7.68830207	     17.78227046	     29.68300012	     89.95437384	      0.00000000	      0.00000000
      1.21000000	     -1.97995626	     -1.90083071	      1.10703173	     -0.00843301	      0.89037982	     -0.97305434	      2.06473358	      3.07245721	    -13.81247566	    -19.28380309	     -0.33656586	     13.00807359	      0.82604291	     -0.24853602	     31.49018757	      6.39914360	     10.14287718	    -42.16272983	     -0.73587846	      9.31247694	     18.09250352	     20.04144619	     -3.95610290	      0.85459936	      0.62682640	      4.95782829	    -11.12995866	     -9.83502674	     34.63481689	     89.95437384	      0.00000000	      0.00000000	     -6.89296100	      7.60547258	     17.54246323	     29.30235457	     89.95437384	      0.00000000	      0.00000000
      1.22000000	     -1.96734060	     -1.69523530	      1.03129061	     -0.00022716	      0.89005634	     -0.97341414	      1.41961461	      2.76687690	    -13.92966990	    -19.29771161	     -0.33680861	     13.19245654	      1.31237932	     -0.53671464	     31.51871303	      6.11401001	     10.70651825	    -39.20668112	     -0.68428567	      8.46169968	     17.73447338	     19.67660858	     -4.08283775	      0.60173163	      0.84958851	      5.10520922	    -11.34789538	     -9.69391299	     35.35896614	     89.95437384	      0.00000000	      0.00000000	     -6.85659185	      7.61522016	     17.07581310	     28.38393678	     89.95437384	      0.00000000	      0.00000000
      1.23000000	     -2.01194220	     -1.55681468	      0.99811082	      0.00805546	      0.88941168	     -0.97405016	      0.90843245	      2.35079630	    -14.79687603	    -19.44632356	     -0.33940237	     13.48962263	      3.11538187	     -1.96784560	     31.61388814	      5.85239096	     11.13694553	    -36.36482454	     -0.63468592	      7.61195249	     17.15111209	     17.34464417	     -4.13324682	      0.43598774	      0.96049834	      5.28689252	    -11.56086620	     -9.56005941	     36.00846963	     89.95437384	      0.00000000	      0.00000000	     -7.08462653	      7.61030861	     16.59227740	     28.00739298	     89.95437384	      0.00000000	      0.00000000
      1.24000000	     -2.27705189	     -1.63465560	      0.90985257	      0.01612632	      0.88840395	     -0.97445668	      0.64552075	      2.36782919	    -14.82214977	    -19.52165174	     -0.34071710	     13.58044558	      3.13188008	     -2.25507206	     32.03939810	      5.90297642	     11.58623475	    -33.78507985	     -0.58966088	      6.89370774	     16.28638771	     16.75120847	     -3.93934062	      0.49197827	      1.08746479	      5.46129213	    -11.82830909	     -9.20890630	     36.60958080	     89.95437384	      0.00000000	      0.00000000	     -7.18827013	      7.52059262	     16.51110277	     27.41152609	     89.95437384	      0.00000000	      0.00000000
      1.25000000	     -2.64527343	     -1.85847810	      0.81447352	      0.02435208	      0.88716027	     -0.97479165	      0.49447817	      2.54844790	    -14.81368697	    -19.61070059	     -0.34227129	     13.58702914	      3.20709098	     -2.35724805	     32.60465684	      6.05576428	     11.76027229	    -31.45147315	     -0.54893176	      6.55293765	     15.13981476	     16.35654830	     -3.60771201	      0.68895832	      1.20581753	      5.61650923	    -12.07385299	     -8.91325903	     37.13183369	     89.95437384	      0.00000000	      0.00000000	     -7.46727022	      7.42834940	     16.40627936	     27.16957160	     89.95437384	      0.00000000	      0.00000000
      1.26000000	     -2.78889126	     -1.81391458	      0.71957719	      0.03268488	      0.88633588	     -0.97540968	      0.11807982	      2.39261089	    -14.73677680	    -19.75012166	     -0.34470465	     13.70020030	      3.38844867	     -2.58563610	     32.81925719	      6.04313215	     12.40087880	    -29.18087594	     -0.50930236	      5.96969556	     13.42181399	     15.63826579	     -3.52332249	      0.60388069	      1.29392561	      5.80116030	    -12.27365688	     -8.59007114	     37.61783340	     89.95437384	      0.00000000	      0.00000000	     -7.56305095	      7.38050628	     16.12678692	     26.57014429	     89.95437384	      0.00000000	      0.00000000
      1.27000000	     -2.73410614	     -1.75347841	      0.52212540	      0.04146234	      0.88569860	     -0.97582267	     -0.49593011	      2.16967322	    -14.93792459	    -19.93089295	     -0.34785970	     13.89455692	      4.14217609	     -3.13748226	     32.70950997	      6.21472530	     13.63527943	    -27.06958666	     -0.47245341	      5.34150124	     10.64413868	     14.00480658	     -3.64128252	      0.46732610	      1.49487971	      5.94301900	    -12.44316253	     -8.35129245	     38.06501225	     89.95437384	      0.00000000	      0.00000000	     -7.70352490	      7.37557337	     16.00855421	     26.23768809	     89.95437384	      0.00000000	      0.00000000
      1.28000000	     -3.14264103	     -1.93993847	      0.39707885	      0.04970668	      0.88434981	     -0.97673648	     -0.53865363	      2.23413149	    -14.86556830	    -20.10837657	     -0.35095738	     13.89785328	      4.24094074	     -3.24713380	     33.25867200	      6.29607564	     13.69442149	    -25.31739384	     -0.44187188	      4.93787522	      9.23454685	     13.52206654	     -3.25305914	      0.65433921	      1.57340709	      6.10574943	    -12.68174749	     -8.08070994	     38.42033779	     89.95437384	      0.00000000	      0.00000000	     -7.90937494	      7.24147460	     15.92987463	     26.01881939	     89.95437384	      0.00000000	      0.00000000
      1.29000000	     -3.15318639	     -1.82463700	      0.14022991	      0.05866972	      0.88364637	     -0.97731670	     -0.97719606	      1.90317858	    -14.83302825	    -20.55813392	     -0.35880712	     14.01450498	      4.74060639	     -3.75063265	     33.28728027	      6.55363313	     15.37391783	    -23.94821992	     -0.41797529	      3.84707800	      5.52801901	     11.79109223	     -3.25803925	      0.46250840	      1.70284761	      6.31055617	    -12.77934160	     -7.79151669	     38.66780402	     89.95437384	      0.00000000	      0.00000000	     -8.00428061	      7.16907775	     16.11795512	     25.55391326	     89.95437384	      0.00000000	      0.00000000
